<svg width="600" height="180" viewBox="0 0 600 180" fill="none" xmlns="http://www.w3.org/2000/svg">
<path d="M40 102C55 102 62 60 80 60C98 60 105 102 120 102C135 102 142 82 155 82H205" stroke="#EDE4D2" stroke-width="5" stroke-linecap="round" stroke-linejoin="round"/>
<path d="M205 88C208.314 88 211 85.3137 211 82C211 78.6863 208.314 76 205 76C201.686 76 199 78.6863 199 82C199 85.3137 201.686 88 205 88Z" fill="#B8974A"/>
<path d="M304.166 93L285.442 49.6H296.292L312.66 88.04H306.274L322.89 49.6H332.872L314.086 93H304.166ZM336.496 93V49.6H346.54V93H336.496ZM356.839 93V49.6H375.377C381.412 49.6 386.103 51.0053 389.451 53.816C392.799 56.5853 394.473 60.4293 394.473 65.348C394.473 68.572 393.709 71.362 392.179 73.718C390.65 76.0327 388.48 77.81 385.669 79.05C382.859 80.29 379.511 80.91 375.625 80.91H362.419L366.883 76.508V93H356.839ZM384.429 93L373.579 77.252H384.305L395.279 93H384.429ZM366.883 77.624L362.419 72.912H375.067C378.167 72.912 380.482 72.2507 382.011 70.928C383.541 69.564 384.305 67.704 384.305 65.348C384.305 62.9507 383.541 61.0907 382.011 59.768C380.482 58.4453 378.167 57.784 375.067 57.784H362.419L366.883 53.01V77.624ZM410.816 93V57.784H396.928V49.6H434.748V57.784H420.86V93H410.816ZM432.268 93L451.612 49.6H461.532L480.938 93H470.398L454.526 54.684H458.494L442.56 93H432.268ZM441.94 83.7L444.606 76.074H466.926L469.654 83.7H441.94Z" fill="#EDE4D2"/>
<path d="M296.524 124.108C295.576 124.108 294.7 123.952 293.896 123.64C293.092 123.316 292.396 122.866 291.808 122.29C291.22 121.714 290.758 121.036 290.422 120.256C290.098 119.476 289.936 118.624 289.936 117.7C289.936 116.776 290.098 115.924 290.422 115.144C290.758 114.364 291.22 113.686 291.808 113.11C292.408 112.534 293.11 112.09 293.914 111.778C294.718 111.454 295.594 111.292 296.542 111.292C297.454 111.292 298.312 111.448 299.116 111.76C299.92 112.06 300.598 112.516 301.15 113.128L300.304 113.974C299.788 113.446 299.218 113.068 298.594 112.84C297.97 112.6 297.298 112.48 296.578 112.48C295.822 112.48 295.12 112.612 294.472 112.876C293.824 113.128 293.26 113.494 292.78 113.974C292.3 114.442 291.922 114.994 291.646 115.63C291.382 116.254 291.25 116.944 291.25 117.7C291.25 118.456 291.382 119.152 291.646 119.788C291.922 120.412 292.3 120.964 292.78 121.444C293.26 121.912 293.824 122.278 294.472 122.542C295.12 122.794 295.822 122.92 296.578 122.92C297.298 122.92 297.97 122.8 298.594 122.56C299.218 122.32 299.788 121.936 300.304 121.408L301.15 122.254C300.598 122.866 299.92 123.328 299.116 123.64C298.312 123.952 297.448 124.108 296.524 124.108ZM301.481 124L307.241 111.4H308.555L314.315 124H312.911L307.619 112.174H308.159L302.867 124H301.481ZM303.749 120.634L304.145 119.554H311.471L311.867 120.634H303.749ZM316.4 124V111.4H321.116C322.184 111.4 323.102 111.574 323.87 111.922C324.638 112.258 325.226 112.75 325.634 113.398C326.054 114.034 326.264 114.808 326.264 115.72C326.264 116.608 326.054 117.376 325.634 118.024C325.226 118.66 324.638 119.152 323.87 119.5C323.102 119.848 322.184 120.022 321.116 120.022H317.138L317.732 119.392V124H316.4ZM317.732 119.5L317.138 118.852H321.08C322.34 118.852 323.294 118.582 323.942 118.042C324.602 117.49 324.932 116.716 324.932 115.72C324.932 114.712 324.602 113.932 323.942 113.38C323.294 112.828 322.34 112.552 321.08 112.552H317.138L317.732 111.922V119.5ZM329.144 124V111.4H330.476V124H329.144ZM337.023 124V112.552H332.595V111.4H342.783V112.552H338.355V124H337.023ZM342.263 124L348.023 111.4H349.337L355.097 124H353.693L348.401 112.174H348.941L343.649 124H342.263ZM344.531 120.634L344.927 119.554H352.253L352.649 120.634H344.531ZM357.181 124V111.4H358.513V122.848H365.569V124H357.181Z" fill="#B8974A"/>
</svg>
